<svg xmlns="http://www.w3.org/2000/svg" width="19.774" height="18.168" viewBox="0 0 19.774 18.168">
  <g id="Icon_-_supermarket" data-name="Icon - supermarket" transform="translate(0.25 -21.084)">
    <g id="Group_11" data-name="Group 11" transform="translate(0 21.334)">
      <g id="Group_10" data-name="Group 10" transform="translate(0 0)">
        <path id="Path_76" data-name="Path 76" d="M19.194,23.9a.417.417,0,0,0-.321-.161H3.614l-.4-2.088c0-.161-.241-.321-.4-.321H.4a.4.4,0,1,0,0,.8H2.49l1.927,9.8a2.83,2.83,0,0,0,2.731,2.249h9.236a.4.4,0,0,0,0-.8H7.228A1.851,1.851,0,0,1,5.622,32.5l11.725-1.606a.345.345,0,0,0,.321-.321l1.606-6.425A.4.4,0,0,0,19.194,23.9Zm-2.249,6.264L5.22,31.694,3.775,24.466H18.311Z" transform="translate(0 -21.334)" fill="#36596a" stroke="#36596a" stroke-width="0.5"/>
      </g>
    </g>
    <g id="Group_13" data-name="Group 13" transform="translate(4.819 34.987)">
      <g id="Group_12" data-name="Group 12" transform="translate(0 0)">
        <path id="Path_77" data-name="Path 77" d="M130.008,384a2.008,2.008,0,1,0,2.008,2.008A1.988,1.988,0,0,0,130.008,384Zm0,3.212a1.2,1.2,0,1,1,1.2-1.2A1.235,1.235,0,0,1,130.008,387.212Z" transform="translate(-128 -384)" fill="#36596a" stroke="#36596a" stroke-width="0.5"/>
      </g>
    </g>
    <g id="Group_15" data-name="Group 15" transform="translate(12.85 34.987)">
      <g id="Group_14" data-name="Group 14" transform="translate(0 0)">
        <path id="Path_78" data-name="Path 78" d="M343.342,384a2.008,2.008,0,1,0,2.008,2.008A1.988,1.988,0,0,0,343.342,384Zm0,3.212a1.2,1.2,0,1,1,1.2-1.2A1.235,1.235,0,0,1,343.342,387.212Z" transform="translate(-341.334 -384)" fill="#36596a" stroke="#36596a" stroke-width="0.5"/>
      </g>
    </g>
  </g>
</svg>
